<?xml version="1.0" standalone="no"?>
<!DOCTYPE svg PUBLIC "-//W3C//DTD SVG 20010904//EN"
 "http://www.w3.org/TR/2001/REC-SVG-20010904/DTD/svg10.dtd">
<svg version="1.0" xmlns="http://www.w3.org/2000/svg"
 width="512.000000pt" height="512.000000pt" viewBox="0 0 512.000000 512.000000"
 preserveAspectRatio="xMidYMid meet">

<g transform="translate(0.000000,512.000000) scale(0.100000,-0.100000)"
 stroke="none">
<path d="M1695 4521 c-135 -63 -165 -233 -59 -333 104 -97 264 -64 325 67 76
163 -103 342 -266 266z m127 -138 c22 -20 23 -70 1 -95 -20 -22 -70 -23 -95
-1 -22 20 -23 70 -1 95 20 22 70 23 95 1z"/>
<path d="M1019 4042 c-34 -28 -30 -75 10 -116 l33 -34 -36 -47 c-42 -54 -43
-63 -15 -99 29 -37 69 -35 117 9 l39 34 33 -34 c57 -58 130 -40 130 31 0 21
-10 40 -35 64 l-34 33 34 39 c41 44 46 87 15 118 -28 28 -52 25 -105 -15 l-46
-36 -40 36 c-44 39 -67 43 -100 17z"/>
<path d="M2141 3850 c-137 -19 -296 -90 -408 -180 -208 -169 -325 -457 -293
-722 52 -434 421 -747 855 -725 377 19 685 286 761 660 20 96 15 267 -10 362
-9 33 -38 106 -66 161 -78 159 -220 298 -381 374 -131 61 -317 89 -458 70z
m254 -145 c94 -19 237 -92 308 -155 151 -136 229 -311 228 -513 0 -122 -17
-192 -73 -307 -58 -120 -178 -240 -298 -298 -113 -56 -183 -72 -305 -72 -120
0 -202 18 -298 65 -352 172 -489 602 -300 943 44 80 150 194 227 243 145 95
338 130 511 94z"/>
<path d="M2273 3628 c-11 -13 -112 -160 -223 -328 -216 -324 -226 -345 -181
-382 20 -15 41 -18 137 -18 l114 0 0 -185 c0 -172 1 -186 20 -205 23 -23 39
-25 72 -9 31 14 448 706 448 743 0 14 -9 35 -20 46 -18 18 -33 20 -135 20
l-115 0 0 150 c0 137 -2 152 -20 170 -27 27 -71 26 -97 -2z m-18 -395 c8 -44
34 -56 132 -63 l81 -5 -106 -178 -107 -177 -3 82 c-1 46 -4 92 -7 104 -7 30
-47 44 -131 44 l-74 0 102 154 103 154 3 -41 c1 -23 5 -57 7 -74z"/>
<path d="M3706 3048 c-50 -71 43 -159 104 -98 26 26 26 81 2 103 -28 25 -87
22 -106 -5z"/>
<path d="M4277 2554 c-70 -75 -189 -162 -299 -219 l-58 -30 -29 33 c-17 18
-40 32 -52 32 -13 0 -82 -36 -153 -79 -329 -200 -640 -334 -941 -407 -130 -31
-155 -31 -155 -1 0 13 -9 32 -21 43 -20 18 -51 19 -999 19 -948 0 -979 -1
-999 -19 -29 -26 -28 -80 1 -100 20 -14 127 -16 955 -16 l933 0 0 -340 0 -340
-929 0 c-924 0 -928 0 -955 -21 -32 -25 -35 -70 -6 -99 20 -20 33 -20 998 -20
1095 0 1022 -5 1022 71 0 21 4 39 9 39 21 0 368 -103 491 -146 201 -69 320
-118 466 -190 71 -35 142 -64 156 -64 18 0 35 10 51 31 l24 31 114 -45 c118
-47 308 -105 416 -127 55 -11 65 -11 88 4 32 21 42 59 22 90 -12 18 -37 28
-109 46 -124 30 -231 63 -360 112 -95 36 -106 43 -98 59 19 35 12 76 -17 97
-83 59 -373 186 -623 273 l-165 58 428 0 428 1 24 25 c16 15 25 35 25 56 l0
32 98 -7 c132 -10 238 -31 335 -67 45 -17 94 -33 109 -36 54 -10 92 72 51 112
-52 53 -288 114 -465 122 l-128 6 0 28 c0 16 -9 38 -20 49 -19 19 -33 20 -367
20 -191 0 -343 4 -337 8 5 5 41 21 79 37 159 65 436 210 597 314 94 60 119 93
99 129 -17 32 -14 38 32 58 157 71 397 279 397 346 0 26 -44 68 -71 68 -14 0
-46 -26 -92 -76z m-431 -403 c-3 -4 -49 -34 -102 -66 -391 -233 -887 -422
-1084 -413 -52 2 -65 6 -68 21 -4 20 -10 18 148 52 289 61 656 213 975 403
l99 59 19 -23 c10 -13 16 -28 13 -33z m-26 -646 l0 -35 -615 0 -615 0 0 28 c0
16 3 32 7 35 3 4 280 7 615 7 l608 0 0 -35z m-970 -260 c212 -62 374 -116 546
-185 127 -51 314 -140 314 -149 0 -3 -9 -17 -19 -29 l-18 -24 -69 35 c-188 95
-499 208 -824 300 l-185 53 -3 33 -3 33 38 -7 c21 -4 121 -31 223 -60z"/>
</g>
</svg>
