<?xml version="1.0" encoding="iso-8859-1"?>
<!-- Generator: Adobe Illustrator 17.1.0, SVG Export Plug-In . SVG Version: 6.00 Build 0)  -->
<!DOCTYPE svg PUBLIC "-//W3C//DTD SVG 1.1//EN" "http://www.w3.org/Graphics/SVG/1.1/DTD/svg11.dtd">
<svg version="1.1" id="Capa_1" xmlns="http://www.w3.org/2000/svg" xmlns:xlink="http://www.w3.org/1999/xlink" x="0px" y="0px"
	 viewBox="0 0 214.989 214.989" style="enable-background:new 0 0 214.989 214.989;" xml:space="preserve">
<path d="M135.629,122.482v3.763c0,15.827-12.877,28.704-28.705,28.704h-26.49c-9.599,0-18.122-5.721-21.713-14.574
	c-2.614-6.442-6.696-13.968-12.131-22.368C34.546,99.394,10.478,98.857,7.773,98.857l-0.128,0.001
	c-1.994,0.023-3.96-0.744-5.394-2.153C0.819,95.294,0,93.368,0,91.359V23.99c0-2.188,0.956-4.268,2.617-5.692
	c1.661-1.424,3.861-2.052,6.024-1.721l78.915,12.145c15.966,2.458,27.553,15.966,27.553,32.118v42.514h1.392
	C127.048,103.354,135.629,111.935,135.629,122.482z M100.707,160.968H51.06c0.317-2.127,0.485-4.301,0.485-6.515
	c0-24.287-19.759-44.046-44.045-44.046c-4.142,0-7.5,3.357-7.5,7.5v17.031c0,4.143,3.358,7.5,7.5,7.5
	c6.625,0,12.015,5.39,12.015,12.015s-5.39,12.015-12.015,12.015c-4.142,0-7.5,3.357-7.5,7.5v17.03c0,4.143,3.358,7.5,7.5,7.5
	c13.315,0,25.26-5.947,33.343-15.315h59.863c4.142,0,7.5-3.357,7.5-7.5v-7.215C108.207,164.325,104.849,160.968,100.707,160.968z
	 M204.694,137.926c4.837-2.847,8.438-7.594,9.744-13.193c1.261-5.407,0.34-10.981-2.592-15.696
	c-2.932-4.714-7.524-8.005-12.932-9.265c-1.552-0.362-3.142-0.546-4.725-0.546c-6.28,0-12.042,2.782-15.91,7.415
	c-1.016-0.105-2.035-0.159-3.053-0.159c-13.781,0-25.593,9.384-28.726,22.82c-0.984,4.221-1.016,8.559-0.138,12.729
	c-4.454,2.334-8.169,5.93-10.639,10.326c-0.236-0.009-0.473-0.013-0.71-0.013c-8.909,0-16.544,6.064-18.568,14.748
	c-1.157,4.963-0.312,10.08,2.379,14.406c2.691,4.328,6.907,7.348,11.869,8.504c1.424,0.332,2.883,0.501,4.337,0.501
	c3.706,0,7.305-1.11,10.356-3.086c2.189,1.263,4.567,2.203,7.074,2.788c1.935,0.451,3.917,0.681,5.891,0.681
	c6.535,0,12.719-2.474,17.416-6.748c1.753,0.892,3.62,1.573,5.567,2.027c1.837,0.429,3.719,0.646,5.595,0.646c0.001,0,0,0,0.002,0
	c11.477,0,21.315-7.815,23.924-19.005c2.063-8.848-0.852-17.775-7.245-23.641c0.14-0.484,0.267-0.972,0.381-1.463
	C204.358,141.131,204.593,139.535,204.694,137.926z"/>
<g>
</g>
<g>
</g>
<g>
</g>
<g>
</g>
<g>
</g>
<g>
</g>
<g>
</g>
<g>
</g>
<g>
</g>
<g>
</g>
<g>
</g>
<g>
</g>
<g>
</g>
<g>
</g>
<g>
</g>
</svg>
