<svg xmlns="http://www.w3.org/2000/svg" xmlns:xlink="http://www.w3.org/1999/xlink" version="1.1" width="256" height="256" viewBox="0 0 256 256" xml:space="preserve">

<defs>
</defs>
<g style="stroke: none; stroke-width: 0; stroke-dasharray: none; stroke-linecap: butt; stroke-linejoin: miter; stroke-miterlimit: 10; fill: none; fill-rule: nonzero; opacity: 1;" transform="translate(1.4065934065934016 1.4065934065934016) scale(2.81 2.81)" >
	<path d="M 82.302 75.38 H 7.698 C 3.454 75.38 0 71.927 0 67.682 v -3.233 c 0 -0.553 0.448 -1 1 -1 h 32.003 c 0.552 0 1 0.447 1 1 v 2.857 h 21.994 v -2.857 c 0 -0.553 0.447 -1 1 -1 H 89 c 0.553 0 1 0.447 1 1 v 3.233 C 90 71.927 86.547 75.38 82.302 75.38 z M 2 65.448 v 2.233 c 0 3.142 2.556 5.698 5.698 5.698 h 74.604 c 3.142 0 5.698 -2.557 5.698 -5.698 v -2.233 H 57.997 v 2.857 c 0 0.553 -0.447 1 -1 1 H 33.003 c -0.552 0 -1 -0.447 -1 -1 v -2.857 H 2 z" style="stroke: none; stroke-width: 1; stroke-dasharray: none; stroke-linecap: butt; stroke-linejoin: miter; stroke-miterlimit: 10; fill: rgb(255,255,255); fill-rule: nonzero; opacity: 1;" transform=" matrix(1 0 0 1 0 0) " stroke-linecap="round" />
	<path d="M 83.914 65.448 c -0.553 0 -1 -0.447 -1 -1 V 17.907 c 0 -0.71 -0.577 -1.288 -1.287 -1.288 H 8.374 c -0.71 0 -1.288 0.578 -1.288 1.288 v 46.541 c 0 0.553 -0.448 1 -1 1 s -1 -0.447 -1 -1 V 17.907 c 0 -1.813 1.475 -3.288 3.288 -3.288 h 73.253 c 1.813 0 3.287 1.475 3.287 3.288 v 46.541 C 84.914 65.001 84.467 65.448 83.914 65.448 z" style="stroke: none; stroke-width: 1; stroke-dasharray: none; stroke-linecap: butt; stroke-linejoin: miter; stroke-miterlimit: 10; fill: rgb(255,255,255); fill-rule: nonzero; opacity: 1;" transform=" matrix(1 0 0 1 0 0) " stroke-linecap="round" />
	<path d="M 78.5 60.448 h -67 c -0.552 0 -1 -0.447 -1 -1 v -36.31 c 0 -1.712 1.393 -3.104 3.104 -3.104 h 62.791 c 1.712 0 3.104 1.393 3.104 3.104 v 36.31 C 79.5 60.001 79.053 60.448 78.5 60.448 z M 12.5 58.448 h 65 v -35.31 c 0 -0.609 -0.495 -1.104 -1.104 -1.104 H 13.604 c -0.609 0 -1.104 0.496 -1.104 1.104 V 58.448 z" style="stroke: none; stroke-width: 1; stroke-dasharray: none; stroke-linecap: butt; stroke-linejoin: miter; stroke-miterlimit: 10; fill: rgb(255,255,255); fill-rule: nonzero; opacity: 1;" transform=" matrix(1 0 0 1 0 0) " stroke-linecap="round" />
	<path d="M 41.802 53.741 c -0.209 0 -0.421 -0.04 -0.625 -0.125 l -2.931 -1.214 c -0.405 -0.167 -0.722 -0.483 -0.89 -0.89 c -0.168 -0.405 -0.168 -0.853 0 -1.259 c 0.291 -0.701 0.144 -1.439 -0.393 -1.976 s -1.275 -0.682 -1.977 -0.394 c -0.838 0.348 -1.801 -0.054 -2.148 -0.889 l -1.214 -2.931 c -0.168 -0.407 -0.168 -0.853 0 -1.258 c 0.168 -0.406 0.484 -0.722 0.891 -0.89 c 0.7 -0.29 1.119 -0.917 1.119 -1.675 s -0.418 -1.385 -1.12 -1.675 c -0.837 -0.347 -1.236 -1.31 -0.89 -2.147 l 1.214 -2.931 c 0.348 -0.837 1.313 -1.234 2.148 -0.89 c 0.701 0.291 1.44 0.144 1.976 -0.394 c 0.537 -0.536 0.684 -1.275 0.393 -1.976 c -0.346 -0.838 0.053 -1.802 0.89 -2.148 l 2.93 -1.213 c 0.406 -0.168 0.853 -0.168 1.259 0 c 0.405 0.168 0.722 0.484 0.89 0.89 c 0.291 0.701 0.917 1.12 1.675 1.12 c 0.759 0 1.386 -0.418 1.676 -1.12 c 0.167 -0.405 0.483 -0.722 0.89 -0.89 c 0.407 -0.168 0.853 -0.168 1.259 0 l 2.93 1.214 c 0.837 0.346 1.236 1.31 0.89 2.147 c -0.29 0.702 -0.144 1.44 0.394 1.977 c 0.536 0.536 1.273 0.682 1.976 0.393 c 0.405 -0.167 0.852 -0.168 1.259 0 c 0.406 0.168 0.723 0.484 0.89 0.891 l 1.214 2.929 c 0.346 0.838 -0.053 1.801 -0.889 2.148 c -0.702 0.291 -1.121 0.917 -1.121 1.676 s 0.419 1.385 1.12 1.676 c 0 0 0 0 0.001 0 c 0.405 0.168 0.721 0.484 0.889 0.89 c 0.168 0.406 0.167 0.853 -0.001 1.259 l -1.214 2.929 c -0.167 0.404 -0.482 0.721 -0.888 0.889 c -0.405 0.17 -0.854 0.17 -1.259 0.001 c -0.703 -0.289 -1.442 -0.144 -1.978 0.394 c -0.537 0.536 -0.684 1.275 -0.394 1.976 c 0.168 0.405 0.169 0.853 0 1.259 c -0.168 0.406 -0.484 0.723 -0.892 0.891 l -2.928 1.213 c -0.838 0.349 -1.8 -0.053 -2.147 -0.888 c -0.291 -0.703 -0.917 -1.122 -1.676 -1.122 s -1.385 0.419 -1.675 1.12 C 43.062 53.358 42.448 53.741 41.802 53.741 z M 45 49.606 c 1.452 0 2.714 0.77 3.373 2.032 l 2.301 -0.954 c -0.426 -1.357 -0.077 -2.794 0.948 -3.82 c 1.026 -1.026 2.463 -1.375 3.821 -0.949 l 0.954 -2.301 c -1.262 -0.659 -2.031 -1.921 -2.031 -3.373 s 0.77 -2.714 2.032 -3.372 l -0.954 -2.301 c -1.355 0.428 -2.795 0.08 -3.82 -0.948 c -1.027 -1.026 -1.376 -2.463 -0.949 -3.821 l -2.301 -0.953 c -0.659 1.262 -1.921 2.031 -3.373 2.031 c -1.452 0 -2.714 -0.77 -3.373 -2.031 l -2.301 0.953 c 0.427 1.357 0.078 2.794 -0.948 3.821 c -1.026 1.026 -2.463 1.375 -3.822 0.949 l -0.953 2.301 c 1.261 0.658 2.031 1.92 2.031 3.372 c 0 1.452 -0.77 2.715 -2.031 3.374 l 0.953 2.301 c 1.358 -0.426 2.796 -0.078 3.822 0.949 c 1.026 1.026 1.375 2.463 0.948 3.82 l 2.301 0.954 C 42.285 50.377 43.547 49.606 45 49.606 z M 50.795 51.02 C 50.795 51.02 50.795 51.02 50.795 51.02 S 50.795 51.02 50.795 51.02 z M 55.313 46.229 c 0 0.001 0 0.001 -0.001 0.002 L 55.313 46.229 z M 45 46.533 c -3.47 0 -6.292 -2.822 -6.292 -6.292 c 0 -3.47 2.823 -6.292 6.292 -6.292 s 6.292 2.823 6.292 6.292 C 51.292 43.711 48.47 46.533 45 46.533 z M 45 35.949 c -2.367 0 -4.292 1.926 -4.292 4.292 s 1.926 4.292 4.292 4.292 c 2.366 0 4.292 -1.925 4.292 -4.292 S 47.366 35.949 45 35.949 z" style="stroke: none; stroke-width: 1; stroke-dasharray: none; stroke-linecap: butt; stroke-linejoin: miter; stroke-miterlimit: 10; fill: rgb(255,255,255); fill-rule: nonzero; opacity: 1;" transform=" matrix(1 0 0 1 0 0) " stroke-linecap="round" />
</g>
</svg>