<svg xmlns="http://www.w3.org/2000/svg" xmlns:xlink="http://www.w3.org/1999/xlink" version="1.1" width="256" height="256" viewBox="0 0 256 256" xml:space="preserve" fill='#ffffff'>

<defs>
</defs>
<g style="stroke: none; stroke-width: 0; stroke-dasharray: none; stroke-linecap: butt; stroke-linejoin: miter; stroke-miterlimit: 10; fill: none; fill-rule: nonzero; opacity: 1;" transform="translate(1.4065934065934016 1.4065934065934016) scale(2.81 2.81)" >
	<path d="M 72.745 74.813 c -4.411 0 -8 -3.589 -8 -8 s 3.589 -8 8 -8 s 8 3.589 8 8 S 77.156 74.813 72.745 74.813 z M 72.745 60.813 c -3.309 0 -6 2.691 -6 6 s 2.691 6 6 6 s 6 -2.691 6 -6 S 76.054 60.813 72.745 60.813 z" style="stroke: none; stroke-width: 1; stroke-dasharray: none; stroke-linecap: butt; stroke-linejoin: miter; stroke-miterlimit: 10; fill: rgb(255,255,255); fill-rule: nonzero; opacity: 1;" transform=" matrix(1 0 0 1 0 0) " stroke-linecap="round" />
	<path d="M 18.655 74.813 c -4.411 0 -8 -3.589 -8 -8 s 3.589 -8 8 -8 s 8 3.589 8 8 S 23.066 74.813 18.655 74.813 z M 18.655 60.813 c -3.309 0 -6 2.691 -6 6 s 2.691 6 6 6 s 6 -2.691 6 -6 S 21.964 60.813 18.655 60.813 z" style="stroke: none; stroke-width: 1; stroke-dasharray: none; stroke-linecap: butt; stroke-linejoin: miter; stroke-miterlimit: 10; fill: rgb(255,255,255); fill-rule: nonzero; opacity: 1;" transform=" matrix(1 0 0 1 0 0) " stroke-linecap="round" />
	<path d="M 86.575 68.12 h -6.83 c -0.553 0 -1 -0.447 -1 -1 s 0.447 -1 1 -1 h 6.83 c 0.785 0 1.425 -0.64 1.425 -1.425 v -8.666 c 0 -0.996 -0.709 -1.863 -1.687 -2.062 l -17.121 -3.473 c -0.541 -0.11 -0.891 -0.638 -0.781 -1.18 c 0.11 -0.541 0.63 -0.895 1.18 -0.781 l 17.121 3.473 C 88.617 52.395 90 54.086 90 56.029 v 8.666 C 90 66.584 88.464 68.12 86.575 68.12 z" style="stroke: none; stroke-width: 1; stroke-dasharray: none; stroke-linecap: butt; stroke-linejoin: miter; stroke-miterlimit: 10; fill: rgb(255,255,255); fill-rule: nonzero; opacity: 1;" transform=" matrix(1 0 0 1 0 0) " stroke-linecap="round" />
	<path d="M 65.757 68.12 H 25.645 c -0.552 0 -1 -0.447 -1 -1 s 0.448 -1 1 -1 h 40.112 c 0.553 0 1 0.447 1 1 S 66.31 68.12 65.757 68.12 z" style="stroke: none; stroke-width: 1; stroke-dasharray: none; stroke-linecap: butt; stroke-linejoin: miter; stroke-miterlimit: 10; fill: rgb(255,255,255); fill-rule: nonzero; opacity: 1;" transform=" matrix(1 0 0 1 0 0) " stroke-linecap="round" />
	<path d="M 11.655 67.813 c -0.119 0 -0.239 -0.021 -0.356 -0.065 L 0.644 63.68 C 0.256 63.531 0 63.16 0 62.745 V 51.624 c 0 -1.719 1.232 -3.158 2.929 -3.424 l 10.449 -1.639 l 5.227 -5.048 c 2.125 -2.052 4.772 -3.479 7.656 -4.125 c 0.542 -0.124 1.074 0.218 1.194 0.757 c 0.121 0.539 -0.218 1.074 -0.757 1.194 c -2.525 0.566 -4.843 1.815 -6.704 3.612 L 14.54 48.22 c -0.148 0.143 -0.336 0.236 -0.54 0.269 L 3.238 50.177 C 2.521 50.289 2 50.897 2 51.624 v 10.433 l 10.012 3.821 c 0.516 0.197 0.775 0.775 0.578 1.291 C 12.438 67.567 12.058 67.813 11.655 67.813 z" style="stroke: none; stroke-width: 1; stroke-dasharray: none; stroke-linecap: butt; stroke-linejoin: miter; stroke-miterlimit: 10; fill: rgb(255,255,255); fill-rule: nonzero; opacity: 1;" transform=" matrix(1 0 0 1 0 0) " stroke-linecap="round" />
	<path d="M 69.391 50.515 c -0.214 0 -0.43 -0.068 -0.611 -0.21 l -7.728 -5.992 c -0.437 -0.338 -0.517 -0.966 -0.178 -1.403 c 0.339 -0.436 0.968 -0.516 1.402 -0.177 l 7.728 5.992 c 0.437 0.338 0.517 0.967 0.178 1.402 C 69.984 50.382 69.689 50.515 69.391 50.515 z" style="stroke: none; stroke-width: 1; stroke-dasharray: none; stroke-linecap: butt; stroke-linejoin: miter; stroke-miterlimit: 10; fill: rgb(255,255,255); fill-rule: nonzero; opacity: 1;" transform=" matrix(1 0 0 1 0 0) " stroke-linecap="round" />
	<path d="M 45 52.728 c -0.117 0 -0.234 -0.021 -0.345 -0.062 c -9.061 -3.331 -15.149 -12.729 -15.149 -23.384 v -6.993 c 0 -0.443 0.292 -0.833 0.717 -0.959 c 2.583 -0.763 4.662 -2.841 5.425 -5.425 c 0.125 -0.425 0.516 -0.717 0.959 -0.717 h 16.789 c 0.443 0 0.834 0.292 0.959 0.717 c 0.763 2.583 2.841 4.662 5.425 5.425 c 0.425 0.125 0.717 0.516 0.717 0.959 v 6.993 c 0 10.655 -6.088 20.053 -15.15 23.384 C 45.234 52.707 45.117 52.728 45 52.728 z M 31.505 23.005 v 6.276 c 0 9.53 5.531 18.26 13.495 21.376 c 7.964 -3.116 13.495 -11.846 13.495 -21.376 v -6.276 c -2.657 -1.015 -4.803 -3.161 -5.817 -5.817 H 37.323 C 36.308 19.844 34.162 21.991 31.505 23.005 z" style="stroke: none; stroke-width: 1; stroke-dasharray: none; stroke-linecap: butt; stroke-linejoin: miter; stroke-miterlimit: 10; fill: rgb(255,255,255); fill-rule: nonzero; opacity: 1;" transform=" matrix(1 0 0 1 0 0) " stroke-linecap="round" />
	<path d="M 42.632 39.365 c -0.009 0 -0.018 0 -0.026 0 c -0.296 -0.008 -0.573 -0.146 -0.757 -0.378 l -4.117 -5.195 c -0.343 -0.433 -0.27 -1.062 0.163 -1.405 c 0.432 -0.343 1.062 -0.271 1.405 0.163 l 3.375 4.258 l 8.062 -9.137 c 0.367 -0.415 0.998 -0.452 1.412 -0.088 c 0.414 0.366 0.453 0.998 0.088 1.412 l -8.853 10.033 C 43.192 39.242 42.919 39.365 42.632 39.365 z" style="stroke: none; stroke-width: 1; stroke-dasharray: none; stroke-linecap: butt; stroke-linejoin: miter; stroke-miterlimit: 10; fill: rgb(255,255,255); fill-rule: nonzero; opacity: 1;" transform=" matrix(1 0 0 1 0 0) " stroke-linecap="round" />
</g>
</svg>