<?xml version="1.0" standalone="no"?>
<!DOCTYPE svg PUBLIC "-//W3C//DTD SVG 20010904//EN"
 "http://www.w3.org/TR/2001/REC-SVG-20010904/DTD/svg10.dtd">
<svg version="1.0" xmlns="http://www.w3.org/2000/svg"
 width="512.000000pt" height="512.000000pt" viewBox="0 0 512.000000 512.000000"
 preserveAspectRatio="xMidYMid meet">

<g transform="translate(0.000000,512.000000) scale(0.100000,-0.100000)"
 stroke="none">
<path d="M4950 4990 l0 -129 -1332 -4 c-1323 -3 -1334 -3 -1447 -25 -209 -40
-345 -82 -533 -163 l-119 -52 -312 94 c-333 100 -393 110 -500 89 -190 -37
-349 -191 -387 -377 -23 -109 -11 -175 89 -510 l94 -312 -52 -119 c-81 -188
-123 -324 -163 -533 -22 -113 -22 -124 -25 -1446 l-4 -1333 -129 0 -130 0 0
-85 0 -85 855 0 855 0 0 85 0 85 -130 0 -130 0 0 185 0 185 78 -39 c237 -119
516 -200 792 -232 149 -17 473 -7 620 19 204 37 351 81 543 164 l118 51 312
-94 c333 -100 393 -110 500 -89 190 37 349 191 387 377 23 109 11 175 -89 510
l-94 312 52 119 c83 194 126 335 162 538 27 153 36 454 20 617 -22 207 -79
443 -151 617 -17 40 -30 77 -30 81 0 5 63 9 140 9 l140 0 0 -130 0 -130 85 0
85 0 0 940 0 940 -85 0 -85 0 0 -130z m-680 -810 l0 -510 -391 0 -391 0 -41
34 c-161 130 -374 227 -607 277 -141 30 -410 33 -545 6 -459 -93 -831 -372
-1034 -775 -110 -219 -155 -410 -154 -657 0 -180 18 -294 73 -456 74 -223 184
-402 345 -564 253 -252 551 -392 910 -426 294 -27 616 48 875 204 425 256 700
742 700 1239 0 321 -116 660 -306 895 -19 23 -34 44 -34 47 0 3 181 6 403 6
l403 0 44 -102 c128 -302 178 -573 167 -912 -6 -202 -26 -333 -81 -522 -260
-903 -1098 -1534 -2038 -1534 -1084 0 -1987 795 -2123 1870 -14 104 -16 179
-12 325 6 212 25 338 81 531 200 692 758 1251 1450 1450 112 32 293 69 381 77
22 2 464 4 983 5 l942 2 0 -510z m680 0 l0 -510 -255 0 -255 0 0 510 0 510
255 0 255 0 0 -510z m-3885 395 c121 -36 226 -67 234 -70 9 -4 -8 -21 -45 -47
-226 -160 -413 -345 -565 -558 -32 -45 -61 -81 -65 -81 -13 0 -134 412 -140
477 -15 144 68 274 207 324 88 32 133 26 374 -45z m1670 -750 c467 -67 857
-378 1020 -811 181 -482 61 -1014 -309 -1372 -183 -176 -389 -285 -646 -339
-117 -24 -363 -24 -480 0 -257 54 -463 163 -646 339 -193 186 -314 407 -371
678 -24 117 -24 363 0 480 54 255 162 462 336 643 290 301 690 441 1096 382z
m-2092 -2538 c146 -218 336 -420 535 -567 l102 -75 0 -67 0 -68 -425 0 -425 0
0 583 0 582 69 -138 c38 -76 103 -189 144 -250z m3928 -207 c77 -259 83 -325
36 -422 -49 -100 -147 -165 -263 -175 -54 -5 -86 2 -290 62 -126 37 -233 70
-237 72 -4 3 18 23 50 46 224 159 418 351 563 556 36 50 67 87 71 83 3 -4 35
-104 70 -222z m-3291 -825 l0 -85 -425 0 -425 0 0 85 0 85 425 0 425 0 0 -85z"/>
<path d="M2390 4515 c-8 -2 -55 -9 -105 -15 -556 -73 -1086 -417 -1385 -899
-178 -287 -278 -599 -297 -928 l-6 -113 85 0 85 0 7 102 c29 453 206 847 522
1162 315 316 709 493 1162 522 l102 7 0 84 0 83 -77 -1 c-43 -1 -85 -3 -93 -4z"/>
<path d="M2730 4435 l0 -85 85 0 85 0 0 85 0 85 -85 0 -85 0 0 -85z"/>
<path d="M680 4355 l0 -85 85 0 85 0 0 85 0 85 -85 0 -85 0 0 -85z"/>
<path d="M2415 3659 c-247 -36 -465 -146 -641 -323 -102 -103 -171 -202 -226
-327 -149 -337 -121 -721 74 -1037 66 -107 226 -271 327 -337 368 -238 828
-243 1199 -13 107 66 271 226 337 328 238 366 242 827 13 1198 -66 107 -226
271 -328 337 -225 146 -505 210 -755 174z m262 -170 c86 -11 187 -39 255 -69
l45 -19 11 -93 c11 -93 6 -152 -19 -202 -16 -31 -301 -316 -311 -310 -4 3 -8
92 -8 197 0 279 -19 372 -96 472 l-26 35 35 0 c20 0 71 -5 114 -11z m-327 -69
c48 -31 90 -82 109 -133 12 -31 16 -479 5 -490 -4 -4 -76 60 -160 142 -180
175 -228 204 -367 223 l-87 12 27 29 c78 83 230 185 334 225 72 28 84 27 139
-8z m871 -197 c93 -97 161 -198 203 -303 l24 -59 -48 -64 c-59 -79 -109 -120
-159 -136 -41 -12 -433 -16 -444 -4 -4 3 58 72 137 153 81 82 157 170 175 201
34 59 66 183 59 229 -3 17 -2 30 2 30 3 0 26 -21 51 -47z m-1226 -249 c49 -17
348 -310 324 -318 -8 -2 -108 -7 -224 -9 -179 -4 -219 -8 -267 -25 -62 -22
-129 -64 -167 -106 -14 -14 -28 -26 -33 -26 -19 0 0 220 27 315 30 102 59 166
80 171 40 9 171 21 195 17 14 -3 43 -11 65 -19z m622 -356 c51 -48 15 -138
-56 -138 -47 0 -81 32 -81 79 0 72 84 109 137 59z m883 -36 c0 -123 -34 -290
-80 -394 l-20 -45 -97 -12 c-85 -10 -105 -9 -153 5 -50 14 -69 30 -207 167
-84 83 -150 154 -147 159 3 4 83 8 177 8 95 0 203 5 241 10 85 13 180 58 232
111 21 21 42 39 46 39 4 0 8 -21 8 -48z m-1177 -119 c4 -3 -60 -74 -142 -158
-115 -118 -155 -166 -180 -216 -33 -68 -55 -165 -49 -211 3 -15 2 -28 -2 -28
-8 0 -91 87 -132 140 -49 64 -94 140 -122 209 l-23 58 53 71 c57 75 100 113
149 130 33 11 437 16 448 5z m150 -363 c4 -183 8 -224 25 -272 22 -62 64 -129
106 -167 14 -14 26 -29 26 -34 0 -6 -40 -8 -107 -3 -111 6 -250 38 -334 75
l-46 21 -11 94 c-10 93 -5 152 19 200 17 32 302 317 310 308 4 -4 9 -104 12
-222z m558 -98 c63 -31 196 -59 225 -48 26 10 14 -9 -33 -55 -97 -93 -198
-161 -303 -203 l-59 -24 -64 48 c-79 59 -120 109 -136 159 -12 41 -16 433 -4
444 3 4 74 -60 158 -142 119 -116 166 -155 216 -179z"/>
<path d="M4270 765 l0 -85 85 0 85 0 0 85 0 85 -85 0 -85 0 0 -85z"/>
</g>
</svg>
